<?xml version="1.0" standalone="no"?>
<!DOCTYPE svg PUBLIC "-//W3C//DTD SVG 20010904//EN"
 "http://www.w3.org/TR/2001/REC-SVG-20010904/DTD/svg10.dtd">
<svg version="1.0" xmlns="http://www.w3.org/2000/svg"
 width="512.000000pt" height="512.000000pt" viewBox="0 0 512.000000 512.000000"
 preserveAspectRatio="xMidYMid meet">
<metadata>
Created by potrace 1.11, written by Peter Selinger 2001-2013
</metadata>
<g transform="translate(0.000000,512.000000) scale(0.100000,-0.100000)"
fill="#000000" stroke="none">
<path d="M2378 5115 c-2 -1 -34 -5 -73 -9 -38 -3 -97 -10 -130 -16 -33 -6 -76
-13 -95 -16 -70 -11 -305 -75 -399 -110 -121 -44 -372 -167 -471 -231 -80 -50
-211 -142 -220 -153 -3 -3 -15 -13 -27 -21 -36 -25 -171 -150 -244 -225 -362
-375 -602 -851 -684 -1359 -2 -11 -6 -36 -9 -55 -22 -131 -29 -534 -12 -645
48 -294 88 -454 160 -638 169 -432 424 -778 801 -1086 308 -251 790 -463 1175
-517 200 -28 243 -31 445 -28 121 2 231 5 245 8 14 2 45 7 70 11 454 66 871
243 1228 522 121 95 289 255 368 353 16 19 31 37 35 40 13 11 148 200 193 270
169 268 310 643 352 940 2 19 6 44 9 55 19 94 27 459 13 605 -55 544 -278
1050 -645 1457 -77 85 -133 141 -223 223 -53 48 -246 190 -330 244 -248 156
-620 301 -880 341 -19 3 -42 8 -50 10 -8 2 -39 7 -69 10 -30 4 -63 9 -75 12
-23 5 -452 13 -458 8z"/>
</g>
</svg>
